<svg width="720" height="560" viewBox="0 0 720 560" fill="none" xmlns="http://www.w3.org/2000/svg">
  <rect width="720" height="560" rx="32" fill="#F4F7FB"/>
  <circle cx="560" cy="120" r="140" fill="#0F62FE" fill-opacity="0.12"/>
  <circle cx="200" cy="420" r="220" fill="#0F62FE" fill-opacity="0.08"/>
  <path d="M160 180C160 162.327 174.327 148 192 148H464C481.673 148 496 162.327 496 180V384C496 401.673 481.673 416 464 416H192C174.327 416 160 401.673 160 384V180Z" fill="#FFFFFF"/>
  <rect x="200" y="208" width="256" height="16" rx="8" fill="#0F62FE" fill-opacity="0.2"/>
  <rect x="200" y="248" width="192" height="12" rx="6" fill="#0F62FE" fill-opacity="0.35"/>
  <rect x="200" y="276" width="232" height="12" rx="6" fill="#0F62FE" fill-opacity="0.18"/>
  <rect x="200" y="316" width="96" height="36" rx="18" fill="#0F62FE" fill-opacity="0.35"/>
  <rect x="312" y="316" width="96" height="36" rx="18" fill="#0F62FE" fill-opacity="0.15"/>
</svg>
