<svg width="720" height="480" viewBox="0 0 720 480" fill="none" xmlns="http://www.w3.org/2000/svg">
  <rect width="720" height="480" rx="32" fill="#F8FAFF"/>
  <g opacity="0.9">
    <path d="M128 128C128 110.327 142.327 96 160 96H560C577.673 96 592 110.327 592 128V352C592 369.673 577.673 384 560 384H160C142.327 384 128 369.673 128 352V128Z" fill="#FFFFFF"/>
    <rect x="176" y="144" width="368" height="18" rx="9" fill="#0F62FE" fill-opacity="0.26"/>
    <rect x="176" y="180" width="280" height="14" rx="7" fill="#0F62FE" fill-opacity="0.2"/>
    <rect x="176" y="210" width="320" height="14" rx="7" fill="#0F62FE" fill-opacity="0.12"/>
    <rect x="176" y="240" width="368" height="120" rx="24" fill="#0F62FE" fill-opacity="0.08"/>
    <circle cx="216" cy="300" r="20" fill="#0F62FE" fill-opacity="0.3"/>
    <circle cx="272" cy="300" r="20" fill="#0F62FE" fill-opacity="0.2"/>
    <circle cx="328" cy="300" r="20" fill="#0F62FE" fill-opacity="0.14"/>
    <circle cx="384" cy="300" r="20" fill="#0F62FE" fill-opacity="0.1"/>
  </g>
  <circle cx="620" cy="80" r="120" fill="#0F62FE" fill-opacity="0.08"/>
</svg>
