<svg width="1200" height="630" viewBox="0 0 1200 630" fill="none" xmlns="http://www.w3.org/2000/svg">
  <rect width="1200" height="630" rx="32" fill="#FFFFFF"/>
  <rect x="48" y="48" width="1104" height="534" rx="28" fill="#F6F7FA"/>
  <path d="M48 420C120 348 248 372 328 330C408 288 464 176 584 168C704 160 744 236 816 252C888 268 1012 236 1152 292V582H48V420Z" fill="#A38555" fill-opacity="0.12"/>
  <circle cx="960" cy="180" r="140" fill="#A38555" fill-opacity="0.18"/>
  <text x="120" y="240" fill="#0B1220" font-family="'Inter', 'Segoe UI', sans-serif" font-size="48" font-weight="600">
    Alexander &amp; Troy Tours
  </text>
  <text x="120" y="302" fill="#6B7280" font-family="'Inter', 'Segoe UI', sans-serif" font-size="26">
    Destination Management Company · Since 1999
  </text>
  <rect x="120" y="340" width="420" height="8" rx="4" fill="#A38555" fill-opacity="0.3"/>
  <rect x="120" y="364" width="360" height="8" rx="4" fill="#A38555" fill-opacity="0.2"/>
  <rect x="120" y="388" width="300" height="8" rx="4" fill="#A38555" fill-opacity="0.18"/>
  <text x="120" y="448" fill="#0B1220" font-family="'Inter', 'Segoe UI', sans-serif" font-size="30" font-weight="500">
    Luxury travel · MICE specialists · Tailor-made consulting
  </text>
</svg>
